<mxfile host="app.diagrams.net" agent="Mozilla/5.0 (Windows NT 10.0; Win64; x64) AppleWebKit/537.36 (KHTML, like Gecko) Chrome/134.0.0.0 Safari/537.36" version="26.1.1">
  <diagram name="Page-1" id="q_HbblpvZ9s8pZD5kV-B">
    <mxGraphModel dx="1593" dy="953" grid="1" gridSize="10" guides="1" tooltips="1" connect="1" arrows="1" fold="1" page="1" pageScale="1" pageWidth="850" pageHeight="1100" math="0" shadow="0">
      <root>
        <mxCell id="0" />
        <mxCell id="1" parent="0" />
        <mxCell id="yvEBXiuTINX9yIudibAE-53" value="" style="edgeStyle=orthogonalEdgeStyle;rounded=0;orthogonalLoop=1;jettySize=auto;html=1;" edge="1" parent="1" source="yvEBXiuTINX9yIudibAE-4" target="yvEBXiuTINX9yIudibAE-46">
          <mxGeometry relative="1" as="geometry" />
        </mxCell>
        <mxCell id="yvEBXiuTINX9yIudibAE-4" value="Model Set-up&amp;nbsp;" style="rounded=0;whiteSpace=wrap;html=1;" vertex="1" parent="1">
          <mxGeometry x="320" y="250" width="140" height="80" as="geometry" />
        </mxCell>
        <mxCell id="yvEBXiuTINX9yIudibAE-12" value="&lt;span style=&quot;text-align: left;&quot;&gt;Select the Edge&lt;/span&gt;" style="shape=delay;whiteSpace=wrap;html=1;" vertex="1" parent="1">
          <mxGeometry x="500" y="260" width="160" height="20" as="geometry" />
        </mxCell>
        <mxCell id="yvEBXiuTINX9yIudibAE-14" value="&lt;span style=&quot;text-align: left;&quot;&gt;Extract the Stress Info&lt;/span&gt;" style="shape=delay;whiteSpace=wrap;html=1;" vertex="1" parent="1">
          <mxGeometry x="500" y="290" width="160" height="20" as="geometry" />
        </mxCell>
        <mxCell id="yvEBXiuTINX9yIudibAE-15" value="&lt;span style=&quot;text-align: left;&quot;&gt;Download the Result File&lt;/span&gt;" style="shape=delay;whiteSpace=wrap;html=1;" vertex="1" parent="1">
          <mxGeometry x="500" y="370" width="160" height="20" as="geometry" />
        </mxCell>
        <mxCell id="yvEBXiuTINX9yIudibAE-28" style="edgeStyle=orthogonalEdgeStyle;rounded=0;orthogonalLoop=1;jettySize=auto;html=1;entryX=0.5;entryY=0;entryDx=0;entryDy=0;" edge="1" parent="1" source="yvEBXiuTINX9yIudibAE-17" target="yvEBXiuTINX9yIudibAE-20">
          <mxGeometry relative="1" as="geometry" />
        </mxCell>
        <mxCell id="yvEBXiuTINX9yIudibAE-17" value="Select the Weld Type" style="rounded=0;whiteSpace=wrap;html=1;" vertex="1" parent="1">
          <mxGeometry x="710" y="400" width="90" height="40" as="geometry" />
        </mxCell>
        <mxCell id="yvEBXiuTINX9yIudibAE-51" value="" style="edgeStyle=orthogonalEdgeStyle;rounded=0;orthogonalLoop=1;jettySize=auto;html=1;" edge="1" parent="1" source="yvEBXiuTINX9yIudibAE-18" target="yvEBXiuTINX9yIudibAE-34">
          <mxGeometry relative="1" as="geometry" />
        </mxCell>
        <mxCell id="yvEBXiuTINX9yIudibAE-18" value="GUI" style="shape=process;whiteSpace=wrap;html=1;backgroundOutline=1;" vertex="1" parent="1">
          <mxGeometry x="320" y="480" width="140" height="60" as="geometry" />
        </mxCell>
        <mxCell id="yvEBXiuTINX9yIudibAE-27" style="edgeStyle=orthogonalEdgeStyle;rounded=0;orthogonalLoop=1;jettySize=auto;html=1;entryX=0.5;entryY=0;entryDx=0;entryDy=0;" edge="1" parent="1" source="yvEBXiuTINX9yIudibAE-19" target="yvEBXiuTINX9yIudibAE-17">
          <mxGeometry relative="1" as="geometry" />
        </mxCell>
        <mxCell id="yvEBXiuTINX9yIudibAE-19" value="START" style="ellipse;whiteSpace=wrap;html=1;" vertex="1" parent="1">
          <mxGeometry x="710" y="330" width="90" height="50" as="geometry" />
        </mxCell>
        <mxCell id="yvEBXiuTINX9yIudibAE-30" style="edgeStyle=orthogonalEdgeStyle;rounded=0;orthogonalLoop=1;jettySize=auto;html=1;entryX=0.5;entryY=0;entryDx=0;entryDy=0;" edge="1" parent="1" source="yvEBXiuTINX9yIudibAE-20" target="yvEBXiuTINX9yIudibAE-21">
          <mxGeometry relative="1" as="geometry" />
        </mxCell>
        <mxCell id="yvEBXiuTINX9yIudibAE-20" value="Give the Material Inputs" style="rounded=0;whiteSpace=wrap;html=1;" vertex="1" parent="1">
          <mxGeometry x="710" y="460" width="90" height="40" as="geometry" />
        </mxCell>
        <mxCell id="yvEBXiuTINX9yIudibAE-31" style="edgeStyle=orthogonalEdgeStyle;rounded=0;orthogonalLoop=1;jettySize=auto;html=1;entryX=0.5;entryY=0;entryDx=0;entryDy=0;" edge="1" parent="1" source="yvEBXiuTINX9yIudibAE-21" target="yvEBXiuTINX9yIudibAE-23">
          <mxGeometry relative="1" as="geometry" />
        </mxCell>
        <mxCell id="yvEBXiuTINX9yIudibAE-21" value="Set Material Allowable" style="rounded=0;whiteSpace=wrap;html=1;" vertex="1" parent="1">
          <mxGeometry x="710" y="520" width="90" height="40" as="geometry" />
        </mxCell>
        <mxCell id="yvEBXiuTINX9yIudibAE-23" value="END" style="ellipse;whiteSpace=wrap;html=1;" vertex="1" parent="1">
          <mxGeometry x="710" y="580" width="90" height="50" as="geometry" />
        </mxCell>
        <mxCell id="yvEBXiuTINX9yIudibAE-50" value="" style="edgeStyle=orthogonalEdgeStyle;rounded=0;orthogonalLoop=1;jettySize=auto;html=1;" edge="1" parent="1" source="yvEBXiuTINX9yIudibAE-34">
          <mxGeometry relative="1" as="geometry">
            <mxPoint x="390" y="670" as="targetPoint" />
          </mxGeometry>
        </mxCell>
        <mxCell id="yvEBXiuTINX9yIudibAE-34" value="Iteration Process" style="shape=process;whiteSpace=wrap;html=1;backgroundOutline=1;" vertex="1" parent="1">
          <mxGeometry x="320" y="575" width="140" height="60" as="geometry" />
        </mxCell>
        <mxCell id="yvEBXiuTINX9yIudibAE-35" style="edgeStyle=orthogonalEdgeStyle;rounded=0;orthogonalLoop=1;jettySize=auto;html=1;entryX=0.5;entryY=0;entryDx=0;entryDy=0;" edge="1" parent="1" source="yvEBXiuTINX9yIudibAE-36" target="yvEBXiuTINX9yIudibAE-40">
          <mxGeometry relative="1" as="geometry" />
        </mxCell>
        <mxCell id="yvEBXiuTINX9yIudibAE-36" value="Python Script -&lt;br&gt;Itertaions until mat. Allowable" style="rounded=0;whiteSpace=wrap;html=1;" vertex="1" parent="1">
          <mxGeometry x="80" y="561.1800000000001" width="90" height="40" as="geometry" />
        </mxCell>
        <mxCell id="yvEBXiuTINX9yIudibAE-37" style="edgeStyle=orthogonalEdgeStyle;rounded=0;orthogonalLoop=1;jettySize=auto;html=1;entryX=0.5;entryY=0;entryDx=0;entryDy=0;" edge="1" parent="1" source="yvEBXiuTINX9yIudibAE-38" target="yvEBXiuTINX9yIudibAE-36">
          <mxGeometry relative="1" as="geometry" />
        </mxCell>
        <mxCell id="yvEBXiuTINX9yIudibAE-38" value="START" style="ellipse;whiteSpace=wrap;html=1;" vertex="1" parent="1">
          <mxGeometry x="80" y="491.18" width="90" height="50" as="geometry" />
        </mxCell>
        <mxCell id="yvEBXiuTINX9yIudibAE-39" style="edgeStyle=orthogonalEdgeStyle;rounded=0;orthogonalLoop=1;jettySize=auto;html=1;entryX=0.5;entryY=0;entryDx=0;entryDy=0;" edge="1" parent="1" source="yvEBXiuTINX9yIudibAE-40">
          <mxGeometry relative="1" as="geometry">
            <mxPoint x="125" y="681.1800000000001" as="targetPoint" />
          </mxGeometry>
        </mxCell>
        <mxCell id="yvEBXiuTINX9yIudibAE-40" value="Result File As PDF" style="rounded=0;whiteSpace=wrap;html=1;" vertex="1" parent="1">
          <mxGeometry x="80" y="621.1800000000001" width="90" height="40" as="geometry" />
        </mxCell>
        <mxCell id="yvEBXiuTINX9yIudibAE-43" value="END" style="ellipse;whiteSpace=wrap;html=1;" vertex="1" parent="1">
          <mxGeometry x="80" y="681.1800000000001" width="90" height="50" as="geometry" />
        </mxCell>
        <mxCell id="yvEBXiuTINX9yIudibAE-54" value="" style="edgeStyle=orthogonalEdgeStyle;rounded=0;orthogonalLoop=1;jettySize=auto;html=1;" edge="1" parent="1" source="yvEBXiuTINX9yIudibAE-44" target="yvEBXiuTINX9yIudibAE-4">
          <mxGeometry relative="1" as="geometry" />
        </mxCell>
        <mxCell id="yvEBXiuTINX9yIudibAE-44" value="START" style="ellipse;whiteSpace=wrap;html=1;" vertex="1" parent="1">
          <mxGeometry x="330" y="140" width="120" height="80" as="geometry" />
        </mxCell>
        <mxCell id="yvEBXiuTINX9yIudibAE-45" value="END" style="ellipse;whiteSpace=wrap;html=1;" vertex="1" parent="1">
          <mxGeometry x="330" y="670" width="120" height="80" as="geometry" />
        </mxCell>
        <mxCell id="yvEBXiuTINX9yIudibAE-52" value="" style="edgeStyle=orthogonalEdgeStyle;rounded=0;orthogonalLoop=1;jettySize=auto;html=1;" edge="1" parent="1" source="yvEBXiuTINX9yIudibAE-46" target="yvEBXiuTINX9yIudibAE-18">
          <mxGeometry relative="1" as="geometry" />
        </mxCell>
        <mxCell id="yvEBXiuTINX9yIudibAE-46" value="FEA&amp;nbsp;" style="rounded=0;whiteSpace=wrap;html=1;" vertex="1" parent="1">
          <mxGeometry x="320" y="360" width="140" height="80" as="geometry" />
        </mxCell>
        <mxCell id="yvEBXiuTINX9yIudibAE-55" value="" style="endArrow=none;dashed=1;html=1;rounded=0;" edge="1" parent="1">
          <mxGeometry width="50" height="50" relative="1" as="geometry">
            <mxPoint x="490" y="358.82" as="sourcePoint" />
            <mxPoint x="670" y="358.82" as="targetPoint" />
          </mxGeometry>
        </mxCell>
        <mxCell id="yvEBXiuTINX9yIudibAE-56" value="" style="endArrow=none;dashed=1;html=1;rounded=0;" edge="1" parent="1">
          <mxGeometry width="50" height="50" relative="1" as="geometry">
            <mxPoint x="490" y="438.82" as="sourcePoint" />
            <mxPoint x="670" y="438.82" as="targetPoint" />
          </mxGeometry>
        </mxCell>
        <mxCell id="yvEBXiuTINX9yIudibAE-57" value="" style="endArrow=none;dashed=1;html=1;dashPattern=1 3;strokeWidth=2;rounded=0;" edge="1" parent="1">
          <mxGeometry width="50" height="50" relative="1" as="geometry">
            <mxPoint x="490" y="438.82" as="sourcePoint" />
            <mxPoint x="490" y="358.82" as="targetPoint" />
          </mxGeometry>
        </mxCell>
        <mxCell id="yvEBXiuTINX9yIudibAE-63" value="" style="endArrow=none;dashed=1;html=1;dashPattern=1 3;strokeWidth=2;rounded=0;" edge="1" parent="1">
          <mxGeometry width="50" height="50" relative="1" as="geometry">
            <mxPoint x="670" y="438.82" as="sourcePoint" />
            <mxPoint x="670" y="358.82" as="targetPoint" />
          </mxGeometry>
        </mxCell>
        <mxCell id="yvEBXiuTINX9yIudibAE-64" value="" style="endArrow=none;dashed=1;html=1;rounded=0;" edge="1" parent="1">
          <mxGeometry width="50" height="50" relative="1" as="geometry">
            <mxPoint x="490" y="250" as="sourcePoint" />
            <mxPoint x="670" y="250" as="targetPoint" />
          </mxGeometry>
        </mxCell>
        <mxCell id="yvEBXiuTINX9yIudibAE-65" value="" style="endArrow=none;dashed=1;html=1;rounded=0;" edge="1" parent="1">
          <mxGeometry width="50" height="50" relative="1" as="geometry">
            <mxPoint x="490" y="330" as="sourcePoint" />
            <mxPoint x="670" y="330" as="targetPoint" />
          </mxGeometry>
        </mxCell>
        <mxCell id="yvEBXiuTINX9yIudibAE-66" value="" style="endArrow=none;dashed=1;html=1;dashPattern=1 3;strokeWidth=2;rounded=0;" edge="1" parent="1">
          <mxGeometry width="50" height="50" relative="1" as="geometry">
            <mxPoint x="490" y="330" as="sourcePoint" />
            <mxPoint x="490" y="250" as="targetPoint" />
          </mxGeometry>
        </mxCell>
        <mxCell id="yvEBXiuTINX9yIudibAE-67" value="" style="endArrow=none;dashed=1;html=1;dashPattern=1 3;strokeWidth=2;rounded=0;" edge="1" parent="1">
          <mxGeometry width="50" height="50" relative="1" as="geometry">
            <mxPoint x="670" y="330" as="sourcePoint" />
            <mxPoint x="670" y="250" as="targetPoint" />
          </mxGeometry>
        </mxCell>
        <mxCell id="yvEBXiuTINX9yIudibAE-68" value="" style="endArrow=classic;html=1;rounded=0;" edge="1" parent="1" target="yvEBXiuTINX9yIudibAE-4">
          <mxGeometry width="50" height="50" relative="1" as="geometry">
            <mxPoint x="490" y="290" as="sourcePoint" />
            <mxPoint x="380" y="350" as="targetPoint" />
          </mxGeometry>
        </mxCell>
        <mxCell id="yvEBXiuTINX9yIudibAE-69" value="" style="endArrow=classic;html=1;rounded=0;" edge="1" parent="1">
          <mxGeometry width="50" height="50" relative="1" as="geometry">
            <mxPoint x="490" y="399.89" as="sourcePoint" />
            <mxPoint x="460" y="399.89" as="targetPoint" />
          </mxGeometry>
        </mxCell>
        <mxCell id="yvEBXiuTINX9yIudibAE-70" value="" style="endArrow=none;dashed=1;html=1;dashPattern=1 3;strokeWidth=2;rounded=0;" edge="1" parent="1">
          <mxGeometry width="50" height="50" relative="1" as="geometry">
            <mxPoint x="700" y="640" as="sourcePoint" />
            <mxPoint x="700" y="320" as="targetPoint" />
          </mxGeometry>
        </mxCell>
        <mxCell id="yvEBXiuTINX9yIudibAE-71" value="" style="endArrow=none;dashed=1;html=1;dashPattern=1 3;strokeWidth=2;rounded=0;" edge="1" parent="1">
          <mxGeometry width="50" height="50" relative="1" as="geometry">
            <mxPoint x="820" y="640" as="sourcePoint" />
            <mxPoint x="820" y="320" as="targetPoint" />
          </mxGeometry>
        </mxCell>
        <mxCell id="yvEBXiuTINX9yIudibAE-72" value="" style="endArrow=none;dashed=1;html=1;dashPattern=1 3;strokeWidth=2;rounded=0;" edge="1" parent="1">
          <mxGeometry width="50" height="50" relative="1" as="geometry">
            <mxPoint x="700" y="640" as="sourcePoint" />
            <mxPoint x="820" y="640" as="targetPoint" />
          </mxGeometry>
        </mxCell>
        <mxCell id="yvEBXiuTINX9yIudibAE-73" value="" style="endArrow=none;dashed=1;html=1;dashPattern=1 3;strokeWidth=2;rounded=0;" edge="1" parent="1">
          <mxGeometry width="50" height="50" relative="1" as="geometry">
            <mxPoint x="700" y="320" as="sourcePoint" />
            <mxPoint x="820" y="320" as="targetPoint" />
          </mxGeometry>
        </mxCell>
        <mxCell id="yvEBXiuTINX9yIudibAE-74" value="" style="endArrow=none;dashed=1;html=1;dashPattern=1 3;strokeWidth=2;rounded=0;" edge="1" parent="1">
          <mxGeometry width="50" height="50" relative="1" as="geometry">
            <mxPoint x="70" y="780" as="sourcePoint" />
            <mxPoint x="70" y="460" as="targetPoint" />
          </mxGeometry>
        </mxCell>
        <mxCell id="yvEBXiuTINX9yIudibAE-75" value="" style="endArrow=none;dashed=1;html=1;dashPattern=1 3;strokeWidth=2;rounded=0;" edge="1" parent="1">
          <mxGeometry width="50" height="50" relative="1" as="geometry">
            <mxPoint x="190" y="780" as="sourcePoint" />
            <mxPoint x="190" y="460" as="targetPoint" />
          </mxGeometry>
        </mxCell>
        <mxCell id="yvEBXiuTINX9yIudibAE-76" value="" style="endArrow=none;dashed=1;html=1;dashPattern=1 3;strokeWidth=2;rounded=0;" edge="1" parent="1">
          <mxGeometry width="50" height="50" relative="1" as="geometry">
            <mxPoint x="70" y="780" as="sourcePoint" />
            <mxPoint x="190" y="780" as="targetPoint" />
          </mxGeometry>
        </mxCell>
        <mxCell id="yvEBXiuTINX9yIudibAE-77" value="" style="endArrow=none;dashed=1;html=1;dashPattern=1 3;strokeWidth=2;rounded=0;" edge="1" parent="1">
          <mxGeometry width="50" height="50" relative="1" as="geometry">
            <mxPoint x="70" y="460" as="sourcePoint" />
            <mxPoint x="190" y="460" as="targetPoint" />
          </mxGeometry>
        </mxCell>
        <mxCell id="yvEBXiuTINX9yIudibAE-78" value="" style="endArrow=classic;html=1;rounded=0;exitX=0;exitY=0.5;exitDx=0;exitDy=0;" edge="1" parent="1" source="yvEBXiuTINX9yIudibAE-34">
          <mxGeometry width="50" height="50" relative="1" as="geometry">
            <mxPoint x="240" y="430" as="sourcePoint" />
            <mxPoint x="190" y="605" as="targetPoint" />
          </mxGeometry>
        </mxCell>
        <mxCell id="yvEBXiuTINX9yIudibAE-79" value="" style="endArrow=classic;html=1;rounded=0;" edge="1" parent="1">
          <mxGeometry width="50" height="50" relative="1" as="geometry">
            <mxPoint x="460" y="520" as="sourcePoint" />
            <mxPoint x="700" y="520" as="targetPoint" />
          </mxGeometry>
        </mxCell>
        <mxCell id="yvEBXiuTINX9yIudibAE-80" value="ANSYS Automation" style="text;html=1;align=center;verticalAlign=middle;whiteSpace=wrap;rounded=0;" vertex="1" parent="1">
          <mxGeometry x="550" y="210" width="60" height="30" as="geometry" />
        </mxCell>
        <mxCell id="yvEBXiuTINX9yIudibAE-81" value="Python Automation" style="text;html=1;align=center;verticalAlign=middle;whiteSpace=wrap;rounded=0;" vertex="1" parent="1">
          <mxGeometry x="95" y="420" width="60" height="30" as="geometry" />
        </mxCell>
      </root>
    </mxGraphModel>
  </diagram>
</mxfile>
